<svg width="38" height="40" viewBox="0 0 38 40" fill="none" xmlns="http://www.w3.org/2000/svg" xmlns:xlink="http://www.w3.org/1999/xlink">
<path d="M36.391,20.584C36.391,18.377 35.998,16.261 35.278,14.303C34.785,20.071 31.71,23.034 28.497,21.654C25.487,20.361 27.516,15.321 27.665,12.916C27.918,8.839 27.653,4.173 20.247,0.293C23.324,6.18 20.604,9.837 17.75,10.06C14.584,10.307 11.685,7.339 12.755,2.522C9.289,5.076 9.189,9.375 10.258,12.155C11.373,15.054 10.213,17.462 7.493,17.729C4.454,18.029 2.765,14.475 4.322,8.811C1.627,11.984 0,16.094 0,20.584C0,30.633 8.146,38.779 18.195,38.779C28.244,38.779 36.391,30.633 36.391,20.584Z" fill="#F4900C"/>
<path d="M29.32,25.934C29.479,29.235 26.579,30.529 25.019,29.904C22.764,29.002 23.369,27.452 22.789,24.241C22.209,21.03 19.98,18.801 16.68,17.819C19.088,24.598 15.345,27.096 13.383,27.542C11.38,27.998 9.366,27.541 9.136,23.253C6.799,25.58 5.352,28.8 5.352,32.357C5.352,32.751 5.376,33.139 5.41,33.524C8.696,36.771 13.21,38.779 18.195,38.779C23.181,38.779 27.694,36.771 30.98,33.524C31.014,33.139 31.039,32.751 31.039,32.357C31.039,30.017 30.414,27.824 29.32,25.934Z" fill="#FFCC4D"/>
</svg>
