<svg width="52" height="50" viewBox="0 0 52 50" fill="none" xmlns="http://www.w3.org/2000/svg" xmlns:xlink="http://www.w3.org/1999/xlink">
<path d="M51.001,22.127L37.391,17.089L32.309,0.432C32.113,-0.21 31.518,-0.65 30.847,-0.65C30.175,-0.65 29.58,-0.21 29.385,0.432L24.304,17.089L10.692,22.127C10.091,22.35 9.693,22.921 9.693,23.562C9.693,24.201 10.091,24.775 10.692,24.996L24.296,30.033L29.38,47.197C29.573,47.846 30.169,48.291 30.847,48.291C31.523,48.291 32.121,47.846 32.313,47.196L37.397,30.031L51.003,24.995C51.601,24.775 52,24.203 52,23.562C52,22.922 51.601,22.35 51.001,22.127Z" fill="#FFAC33"/>
<path d="M20.413,38.952L16.874,37.643L15.498,32.596C15.317,31.929 14.713,31.467 14.023,31.467C13.333,31.467 12.729,31.929 12.547,32.594L11.171,37.641L7.633,38.95C7.032,39.172 6.635,39.746 6.635,40.385C6.635,41.024 7.032,41.598 7.633,41.819L11.152,43.124L12.54,48.664C12.711,49.343 13.321,49.82 14.023,49.82C14.725,49.82 15.335,49.343 15.507,48.662L16.894,43.123L20.413,41.818C21.014,41.598 21.412,41.024 21.412,40.385C21.412,39.746 21.014,39.172 20.413,38.952ZM13.778,5.82L10.163,4.482L8.823,0.865C8.601,0.264 8.029,-0.134 7.389,-0.134C6.749,-0.134 6.177,0.264 5.954,0.865L4.616,4.482L0.999,5.82C0.398,6.044 0,6.616 0,7.255C0,7.894 0.398,8.468 0.999,8.689L4.616,10.028L5.954,13.645C6.177,14.246 6.749,14.643 7.389,14.643C8.028,14.643 8.6,14.246 8.823,13.645L10.161,10.028L13.778,8.689C14.38,8.466 14.777,7.894 14.777,7.255C14.777,6.616 14.38,6.044 13.778,5.82Z" fill="#FFCC4D"/>
</svg>
