<svg width="22" height="32" viewBox="0 0 22 32" fill="none" xmlns="http://www.w3.org/2000/svg" xmlns:xlink="http://www.w3.org/1999/xlink">
<path d="M10,1.044L10,0.044L10,1.044ZM20.333,13.044C20.333,12.492 19.886,12.044 19.333,12.044C18.781,12.044 18.333,12.492 18.333,13.044L20.333,13.044ZM19.333,15.711L20.333,15.711L19.333,15.711ZM10,25.044L10,24.044L10,25.044ZM0.667,15.711L-0.333,15.711L0.667,15.711ZM1.667,13.044C1.667,12.492 1.219,12.044 0.667,12.044C0.114,12.044 -0.333,12.492 -0.333,13.044L1.667,13.044ZM9,30.378C9,30.93 9.448,31.378 10,31.378C10.552,31.378 11,30.93 11,30.378L9,30.378ZM4.667,29.378C4.114,29.378 3.667,29.825 3.667,30.378C3.667,30.93 4.114,31.378 4.667,31.378L4.667,29.378ZM15.333,31.378C15.886,31.378 16.333,30.93 16.333,30.378C16.333,29.825 15.886,29.378 15.333,29.378L15.333,31.378ZM10,0.044C8.674,0.044 7.402,0.571 6.464,1.509L7.879,2.923C8.441,2.36 9.204,2.044 10,2.044L10,0.044ZM6.464,1.509C5.527,2.446 5,3.718 5,5.044L7,5.044C7,4.249 7.316,3.486 7.879,2.923L6.464,1.509ZM5,5.044L5,15.711L7,15.711L7,5.044L5,5.044ZM5,15.711C5,17.037 5.527,18.309 6.464,19.247L7.879,17.832C7.316,17.27 7,16.507 7,15.711L5,15.711ZM6.464,19.247C7.402,20.184 8.674,20.711 10,20.711L10,18.711C9.204,18.711 8.441,18.395 7.879,17.832L6.464,19.247ZM10,20.711C11.326,20.711 12.598,20.184 13.536,19.247L12.121,17.832C11.559,18.395 10.796,18.711 10,18.711L10,20.711ZM13.536,19.247C14.473,18.309 15,17.037 15,15.711L13,15.711C13,16.507 12.684,17.27 12.121,17.832L13.536,19.247ZM15,15.711L15,5.044L13,5.044L13,15.711L15,15.711ZM15,5.044C15,3.718 14.473,2.446 13.536,1.509L12.121,2.923C12.684,3.486 13,4.249 13,5.044L15,5.044ZM13.536,1.509C12.598,0.571 11.326,0.044 10,0.044L10,2.044C10.796,2.044 11.559,2.36 12.121,2.923L13.536,1.509ZM18.333,13.044L18.333,15.711L20.333,15.711L20.333,13.044L18.333,13.044ZM18.333,15.711C18.333,17.921 17.455,20.041 15.893,21.604L17.307,23.018C19.245,21.08 20.333,18.452 20.333,15.711L18.333,15.711ZM15.893,21.604C14.33,23.166 12.21,24.044 10,24.044L10,26.044C12.741,26.044 15.369,24.956 17.307,23.018L15.893,21.604ZM10,24.044C7.79,24.044 5.67,23.166 4.107,21.604L2.693,23.018C4.631,24.956 7.259,26.044 10,26.044L10,24.044ZM4.107,21.604C2.545,20.041 1.667,17.921 1.667,15.711L-0.333,15.711C-0.333,18.452 0.755,21.08 2.693,23.018L4.107,21.604ZM1.667,15.711L1.667,13.044L-0.333,13.044L-0.333,15.711L1.667,15.711ZM9,25.044L9,30.378L11,30.378L11,25.044L9,25.044ZM4.667,31.378L15.333,31.378L15.333,29.378L4.667,29.378L4.667,31.378Z" fill="#FCFCFC"/>
</svg>
