<svg width="26" height="28" viewBox="0 0 26 28" fill="none" xmlns="http://www.w3.org/2000/svg" xmlns:xlink="http://www.w3.org/1999/xlink">
<path d="M23.293,26.418C23.683,26.809 24.317,26.809 24.707,26.418C25.098,26.028 25.098,25.394 24.707,25.004L23.293,26.418ZM18.907,19.204C18.517,18.813 17.883,18.813 17.493,19.204C17.102,19.594 17.102,20.228 17.493,20.618L18.907,19.204ZM20.333,12.378C20.333,17.716 16.005,22.044 10.667,22.044L10.667,24.044C17.11,24.044 22.333,18.821 22.333,12.378L20.333,12.378ZM10.667,22.044C5.328,22.044 1,17.716 1,12.378L-1,12.378C-1,18.821 4.223,24.044 10.667,24.044L10.667,22.044ZM1,12.378C1,7.039 5.328,2.711 10.667,2.711L10.667,0.711C4.223,0.711 -1,5.934 -1,12.378L1,12.378ZM10.667,2.711C16.005,2.711 20.333,7.039 20.333,12.378L22.333,12.378C22.333,5.934 17.11,0.711 10.667,0.711L10.667,2.711ZM24.707,25.004L18.907,19.204L17.493,20.618L23.293,26.418L24.707,25.004Z" fill="#FCFCFC"/>
</svg>
